<svg width="41" height="46" viewBox="0 0 41 46" fill="none" xmlns="http://www.w3.org/2000/svg">
<g clip-path="url(#clip0_465_8863)">
<rect x="0.5" y="3.00049" width="40" height="39.5" rx="5" fill="white"/>
<path d="M36.2143 2.85767H4.78571C3.64907 2.85767 2.55898 3.3092 1.75526 4.11292C0.951529 4.91665 0.5 6.00674 0.5 7.14338L0.5 38.572C0.5 39.7086 0.951529 40.7987 1.75526 41.6024C2.55898 42.4061 3.64907 42.8577 4.78571 42.8577H17.0402V29.2586H11.4152V22.8577H17.0402V17.9791C17.0402 12.43 20.3438 9.36481 25.4036 9.36481C27.8268 9.36481 30.3607 9.79695 30.3607 9.79695V15.2434H27.5688C24.8179 15.2434 23.9598 16.9505 23.9598 18.7014V22.8577H30.1009L29.1188 29.2586H23.9598V42.8577H36.2143C37.3509 42.8577 38.441 42.4061 39.2447 41.6024C40.0485 40.7987 40.5 39.7086 40.5 38.572V7.14338C40.5 6.00674 40.0485 4.91665 39.2447 4.11292C38.441 3.3092 37.3509 2.85767 36.2143 2.85767Z" fill="#3B5998"/>
</g>
<defs>
<clipPath id="clip0_465_8863">
<rect width="40" height="45.7143" fill="white" transform="translate(0.5 0.000488281)"/>
</clipPath>
</defs>
</svg>
