<svg width="25" height="25" viewBox="0 0 25 25" fill="none" xmlns="http://www.w3.org/2000/svg">
<path d="M25 12.7815C25 11.9585 24.9271 11.1773 24.8021 10.4169H13.0312V15.1148H19.7708C19.4687 16.6565 18.5833 17.9585 17.2708 18.844V21.969H21.2917C23.6458 19.7919 25 16.5835 25 12.7815Z" fill="#4285F4"/>
<path d="M13.0312 25.0003C16.4062 25.0003 19.2292 23.8753 21.2917 21.9691L17.2708 18.8441C16.1458 19.5941 14.7187 20.0524 13.0312 20.0524C9.77083 20.0524 7.01042 17.8545 6.02083 14.8857H1.875V18.1045C3.92708 22.1878 8.14583 25.0003 13.0312 25.0003Z" fill="#34A853"/>
<path d="M6.02083 14.8861C5.76042 14.1361 5.625 13.334 5.625 12.5006C5.625 11.6673 5.77083 10.8652 6.02083 10.1152V6.89648H1.875C1.02083 8.58398 0.53125 10.4798 0.53125 12.5006C0.53125 14.5215 1.02083 16.4173 1.875 18.1048L6.02083 14.8861Z" fill="#FBBC05"/>
<path d="M13.031 4.94792C14.8748 4.94792 16.5206 5.58334 17.8227 6.82292L21.3852 3.26042C19.2289 1.23958 16.406 0 13.031 0C8.14559 0 3.92684 2.8125 1.87476 6.89583L6.02059 10.1146C7.01017 7.14584 9.77059 4.94792 13.031 4.94792Z" fill="#EA4335"/>
</svg>
