<svg width="41" height="41" viewBox="0 0 41 41" fill="none" xmlns="http://www.w3.org/2000/svg">
<rect x="0.5" y="0.857666" width="40" height="40" rx="5" fill="white"/>
<path d="M20.5 16.0952C19.5581 16.0955 18.6375 16.3751 17.8546 16.8987C17.0716 17.4222 16.4615 18.1661 16.1013 19.0364C15.7411 19.9066 15.647 20.8642 15.831 21.7879C16.015 22.7116 16.4687 23.56 17.1348 24.2259C17.8009 24.8918 18.6495 25.3452 19.5733 25.5288C20.4971 25.7124 21.4546 25.618 22.3247 25.2575C23.1949 24.897 23.9386 24.2865 24.4618 23.5034C24.985 22.7202 25.2643 21.7995 25.2643 20.8577C25.2633 19.5946 24.761 18.3835 23.8677 17.4905C22.9744 16.5975 21.7631 16.0956 20.5 16.0952ZM31.6348 12.4345C31.3924 11.82 31.0263 11.262 30.5592 10.7949C30.0921 10.3278 29.5341 9.96172 28.9196 9.71927C27.0446 8.9791 22.5804 9.14517 20.5 9.14517C18.4196 9.14517 13.9598 8.97285 12.0795 9.71927C11.465 9.96172 10.907 10.3278 10.4399 10.7949C9.97285 11.262 9.60674 11.82 9.36429 12.4345C8.625 14.3095 8.79018 18.7782 8.79018 20.8568C8.79018 22.9353 8.625 27.3987 9.36786 29.28C9.61031 29.8944 9.97642 30.4525 10.4435 30.9195C10.9106 31.3866 11.4686 31.7527 12.083 31.9952C13.958 32.7353 18.4223 32.5693 20.5036 32.5693C22.5848 32.5693 27.0429 32.7416 28.9232 31.9952C29.5376 31.7527 30.0957 31.3866 30.5628 30.9195C31.0298 30.4525 31.3959 29.8944 31.6384 29.28C32.3839 27.405 32.2125 22.9362 32.2125 20.8577C32.2125 18.7791 32.3839 14.3166 31.6384 12.4353L31.6348 12.4345ZM20.5 28.1791C19.052 28.1791 17.6364 27.7497 16.4324 26.9452C15.2284 26.1407 14.29 24.9973 13.7359 23.6595C13.1817 22.3216 13.0368 20.8495 13.3193 19.4293C13.6018 18.0091 14.299 16.7046 15.323 15.6806C16.3469 14.6567 17.6514 13.9594 19.0717 13.6769C20.4919 13.3944 21.964 13.5394 23.3018 14.0935C24.6396 14.6477 25.7831 15.5861 26.5875 16.7901C27.392 17.9941 27.8214 19.4096 27.8214 20.8577C27.8226 21.8195 27.634 22.772 27.2665 23.6608C26.899 24.5497 26.3597 25.3572 25.6797 26.0373C24.9996 26.7174 24.192 27.2567 23.3032 27.6242C22.4144 27.9917 21.4618 28.1803 20.5 28.1791ZM28.1232 14.938C27.7852 14.9382 27.4547 14.8381 27.1735 14.6505C26.8924 14.4628 26.6732 14.1959 26.5437 13.8837C26.4143 13.5714 26.3803 13.2278 26.4461 12.8962C26.512 12.5647 26.6746 12.2601 26.9136 12.021C27.1526 11.7819 27.4571 11.6191 27.7886 11.5531C28.1201 11.4871 28.4638 11.5208 28.7761 11.6502C29.0884 11.7795 29.3554 11.9985 29.5432 12.2796C29.731 12.5606 29.8313 12.8911 29.8313 13.2291C29.8322 13.4536 29.7888 13.676 29.7036 13.8837C29.6184 14.0914 29.493 14.2802 29.3346 14.4393C29.1763 14.5984 28.988 14.7246 28.7808 14.8108C28.5735 14.897 28.3513 14.9415 28.1268 14.9416L28.1232 14.938ZM36.2143 0.857666H4.78571C3.64907 0.857666 2.55898 1.3092 1.75526 2.11292C0.951529 2.91665 0.5 4.00674 0.5 5.14338L0.5 36.572C0.5 37.7086 0.951529 38.7987 1.75526 39.6024C2.55898 40.4061 3.64907 40.8577 4.78571 40.8577H36.2143C37.3509 40.8577 38.441 40.4061 39.2447 39.6024C40.0485 38.7987 40.5 37.7086 40.5 36.572V5.14338C40.5 4.00674 40.0485 2.91665 39.2447 2.11292C38.441 1.3092 37.3509 0.857666 36.2143 0.857666ZM34.6857 26.7505C34.5705 29.0389 34.0482 31.0666 32.3777 32.7327C30.7071 34.3987 28.6813 34.9318 26.3955 35.0407C24.0375 35.1737 16.9679 35.1737 14.6098 35.0407C12.3214 34.9255 10.3009 34.4023 8.62768 32.7327C6.95446 31.063 6.42857 29.0345 6.31964 26.7505C6.18661 24.3916 6.18661 17.3211 6.31964 14.9648C6.43482 12.6764 6.95089 10.6487 8.62768 8.98267C10.3045 7.31659 12.3304 6.78981 14.6098 6.68088C16.9679 6.54784 24.0375 6.54784 26.3955 6.68088C28.6839 6.79606 30.7107 7.31927 32.3777 8.98892C34.0446 10.6586 34.5768 12.6871 34.6857 14.9755C34.8188 17.3255 34.8188 24.3898 34.6857 26.7505Z" fill="#FB3958"/>
</svg>
