<svg width="19" height="17" viewBox="0 0 19 17" fill="none" xmlns="http://www.w3.org/2000/svg">
<g clip-path="url(#clip0_465_8783)">
<path d="M12.1628 5.07953L16.7478 5.74918C17.1275 5.80288 17.4465 6.06822 17.5678 6.43147C17.689 6.79789 17.5901 7.19589 17.3157 7.46755L13.9911 10.6958L14.776 15.3265C14.8398 15.7056 14.6834 16.0909 14.3644 16.3152C14.0485 16.5395 13.6305 16.5679 13.2891 16.3879L9.1923 14.2241L5.09868 16.3879C4.75409 16.5679 4.33612 16.5395 4.02024 16.3152C3.70437 16.0909 3.54483 15.7056 3.61184 15.3265L4.39674 10.6958L1.07143 7.46755C0.796719 7.19589 0.699084 6.79789 0.819691 6.43147C0.939979 6.06822 1.25809 5.80288 1.64065 5.74918L6.2218 5.07953L8.27658 0.899551C8.44568 0.551583 8.80304 0.330688 9.1923 0.330688C9.58475 0.330688 9.9421 0.551583 10.1112 0.899551L12.1628 5.07953Z" fill="#FFCD29"/>
</g>
<defs>
<clipPath id="clip0_465_8783">
<rect width="18.3782" height="16.1728" fill="white" transform="translate(0 0.331909)"/>
</clipPath>
</defs>
</svg>
