<svg width="19" height="17" viewBox="0 0 19 17" fill="none" xmlns="http://www.w3.org/2000/svg">
<g clip-path="url(#clip0_465_8791)">
<path d="M15.1819 15.478C15.2457 15.8609 15.0894 16.2501 14.7703 16.4767C14.4544 16.7032 14.0365 16.7319 13.6951 16.5501L9.59824 14.3645L5.50463 16.5501C5.16004 16.7319 4.74206 16.7032 4.42619 16.4767C4.11031 16.2501 3.95078 15.8609 4.01778 15.478L4.80268 10.8005L1.47738 7.53963C1.20266 7.26524 1.10503 6.86321 1.22564 6.4931C1.34592 6.12617 1.66403 5.85816 2.04659 5.80392L6.62774 5.1275L8.68253 0.905297C8.85163 0.553814 9.20898 0.330688 9.59824 0.330688C9.9907 0.330688 10.348 0.553814 10.5172 0.905297L12.5687 5.1275L17.1537 5.80392C17.5334 5.85816 17.8525 6.12617 17.9737 6.4931C18.095 6.86321 17.9961 7.26524 17.7217 7.53963L14.397 10.8005L15.1819 15.478ZM9.59505 12.3416L9.59824 12.3384L13.159 14.24L12.4794 10.2102L15.3765 7.345L11.3754 6.75792L9.59824 3.10302L9.59505 3.11228V12.3416Z" fill="#FFCD29"/>
</g>
<defs>
<clipPath id="clip0_465_8791">
<rect width="18.3782" height="16.3362" fill="white" transform="translate(0.405945 0.331909)"/>
</clipPath>
</defs>
</svg>
